<svg width="1868" height="2159" viewBox="0 0 1868 2159" fill="none" xmlns="http://www.w3.org/2000/svg">
<g filter="url(#filter0_f_102_15)">
<ellipse cx="634.5" cy="955.085" rx="422.55" ry="434.608" transform="rotate(-10.7996 634.5 955.085)" fill="#25FBEE"/>
<ellipse cx="1276.5" cy="1556.08" rx="422.55" ry="434.608" transform="rotate(-10.7996 1276.5 1556.08)" fill="#6202FF"/>
<ellipse cx="341.5" cy="1774.03" rx="172.666" ry="180.882" transform="rotate(-10.7996 341.5 1774.03)" fill="#FFA800"/>
<ellipse cx="1203.55" cy="449.031" rx="91.4473" ry="94.5714" transform="rotate(-10.7996 1203.55 449.031)" fill="#FF0000"/>
<ellipse cx="1032.55" cy="263.031" rx="91.4473" ry="94.5714" transform="rotate(-10.7996 1032.55 263.031)" fill="#FF00C7"/>
<g filter="url(#filter1_d_102_15)">
<ellipse cx="1646.1" cy="645.482" rx="48.9438" ry="48.1638" transform="rotate(-10.7996 1646.1 645.482)" fill="#70FF00"/>
</g>
</g>
<path d="M884.466 564.429H801.351C798.98 550.799 794.61 538.724 788.239 528.205C781.868 517.538 773.942 508.501 764.46 501.093C754.978 493.685 744.163 488.129 732.014 484.425C720.013 480.573 707.05 478.647 693.123 478.647C668.381 478.647 646.454 484.87 627.342 497.315C608.23 509.612 593.266 527.687 582.451 551.54C571.636 575.245 566.228 604.209 566.228 638.433C566.228 673.25 571.636 702.584 582.451 726.437C593.414 750.142 608.378 768.069 627.342 780.218C646.454 792.218 668.307 798.219 692.901 798.219C706.531 798.219 719.272 796.441 731.125 792.885C743.125 789.181 753.867 783.773 763.349 776.662C772.979 769.551 781.053 760.809 787.572 750.439C794.239 740.068 798.832 728.215 801.351 714.881L884.466 715.326C881.355 736.956 874.613 757.254 864.243 776.218C854.02 795.181 840.612 811.923 824.018 826.442C807.425 840.813 788.017 852.073 765.793 860.222C743.57 868.222 718.902 872.222 691.79 872.222C651.788 872.222 616.082 862.963 584.673 844.443C553.264 825.924 528.522 799.182 510.447 764.217C492.372 729.252 483.335 687.324 483.335 638.433C483.335 589.394 492.447 547.466 510.67 512.649C528.893 477.684 553.709 450.942 585.118 432.423C616.527 413.903 652.084 404.644 691.79 404.644C717.124 404.644 740.681 408.2 762.46 415.311C784.239 422.422 803.647 432.867 820.685 446.646C837.723 460.276 851.723 477.018 862.687 496.871C873.799 516.575 881.058 539.095 884.466 564.429ZM494.891 1623V1167.87H577.34V1360.54H788.239V1167.87H870.91V1623H788.239V1429.66H577.34V1623H494.891Z" fill="white"/>
<path d="M1022.64 868.85C1007.89 868.85 995.124 865.715 984.357 859.444C973.653 853.111 965.387 844.307 959.56 833.033C953.733 821.695 950.819 808.553 950.819 793.605C950.819 778.531 953.733 765.357 959.56 754.083C965.387 742.745 973.653 733.941 984.357 727.671C995.124 721.337 1007.89 718.17 1022.64 718.17C1037.4 718.17 1050.13 721.337 1060.84 727.671C1071.6 733.941 1079.9 742.745 1085.73 754.083C1091.56 765.357 1094.47 778.531 1094.47 793.605C1094.47 808.553 1091.56 821.695 1085.73 833.033C1079.9 844.307 1071.6 853.111 1060.84 859.444C1050.13 865.715 1037.4 868.85 1022.64 868.85ZM1022.83 837.498C1029.55 837.498 1035.15 835.598 1039.65 831.798C1044.15 827.934 1047.54 822.677 1049.82 816.027C1052.16 809.376 1053.33 801.807 1053.33 793.32C1053.33 784.833 1052.16 777.264 1049.82 770.614C1047.54 763.963 1044.15 758.706 1039.65 754.843C1035.15 750.979 1029.55 749.047 1022.83 749.047C1016.06 749.047 1010.36 750.979 1005.73 754.843C1001.17 758.706 997.721 763.963 995.377 770.614C993.097 777.264 991.957 784.833 991.957 793.32C991.957 801.807 993.097 809.376 995.377 816.027C997.721 822.677 1001.17 827.934 1005.73 831.798C1010.36 835.598 1016.06 837.498 1022.83 837.498ZM1174.56 868.375C1163.47 868.375 1153.44 865.525 1144.44 859.824C1135.51 854.061 1128.42 845.605 1123.16 834.458C1117.97 823.247 1115.37 809.503 1115.37 793.225C1115.37 776.504 1118.06 762.602 1123.45 751.518C1128.83 740.37 1135.99 732.041 1144.92 726.531C1153.91 720.957 1163.76 718.17 1174.46 718.17C1182.63 718.17 1189.44 719.564 1194.89 722.351C1200.4 725.074 1204.83 728.494 1208.19 732.611C1211.61 736.665 1214.21 740.655 1215.98 744.582H1217.22V671.427H1257.59V866H1217.69V842.628H1215.98C1214.08 846.682 1211.39 850.704 1207.91 854.694C1204.49 858.621 1200.02 861.883 1194.51 864.48C1189.06 867.077 1182.41 868.375 1174.56 868.375ZM1187.38 836.168C1193.91 836.168 1199.42 834.394 1203.92 830.848C1208.48 827.237 1211.96 822.202 1214.37 815.742C1216.84 809.281 1218.07 801.712 1218.07 793.035C1218.07 784.358 1216.87 776.821 1214.46 770.424C1212.05 764.027 1208.57 759.086 1204.01 755.603C1199.45 752.119 1193.91 750.377 1187.38 750.377C1180.73 750.377 1175.13 752.183 1170.57 755.793C1166.01 759.403 1162.56 764.407 1160.21 770.804C1157.87 777.201 1156.7 784.611 1156.7 793.035C1156.7 801.522 1157.87 809.028 1160.21 815.552C1162.62 822.012 1166.07 827.079 1170.57 830.753C1175.13 834.363 1180.73 836.168 1187.38 836.168ZM1357.37 868.85C1342.36 868.85 1329.44 865.81 1318.61 859.729C1307.84 853.586 1299.55 844.908 1293.72 833.698C1287.89 822.424 1284.98 809.091 1284.98 793.7C1284.98 778.689 1287.89 765.515 1293.72 754.178C1299.55 742.84 1307.75 734.005 1318.33 727.671C1328.97 721.337 1341.44 718.17 1355.76 718.17C1365.39 718.17 1374.35 719.722 1382.65 722.826C1391.01 725.866 1398.29 730.458 1404.5 736.602C1410.77 742.745 1415.64 750.472 1419.13 759.783C1422.61 769.03 1424.35 779.861 1424.35 792.275V803.391H1301.13V778.309H1386.26C1386.26 772.482 1384.99 767.32 1382.46 762.823C1379.92 758.326 1376.41 754.811 1371.91 752.278C1367.48 749.681 1362.31 748.382 1356.42 748.382C1350.28 748.382 1344.83 749.807 1340.08 752.658C1335.4 755.444 1331.72 759.213 1329.06 763.963C1326.4 768.65 1325.04 773.876 1324.98 779.639V803.486C1324.98 810.706 1326.31 816.945 1328.97 822.202C1331.69 827.459 1335.52 831.513 1340.46 834.363C1345.4 837.213 1351.26 838.638 1358.04 838.638C1362.54 838.638 1366.65 838.005 1370.39 836.738C1374.13 835.471 1377.33 833.571 1379.99 831.038C1382.65 828.504 1384.67 825.401 1386.07 821.727L1423.5 824.197C1421.6 833.191 1417.7 841.045 1411.81 847.759C1405.99 854.409 1398.45 859.603 1389.2 863.34C1380.02 867.013 1369.41 868.85 1357.37 868.85Z" fill="white"/>
<path d="M1023.21 1625.85C1008.2 1625.85 995.282 1622.81 984.452 1616.73C973.684 1610.59 965.387 1601.91 959.56 1590.7C953.733 1579.42 950.819 1566.09 950.819 1550.7C950.819 1535.69 953.733 1522.52 959.56 1511.18C965.387 1499.84 973.589 1491.01 984.167 1484.67C994.807 1478.34 1007.28 1475.17 1021.6 1475.17C1031.23 1475.17 1040.19 1476.72 1048.49 1479.83C1056.85 1482.87 1064.13 1487.46 1070.34 1493.6C1076.61 1499.75 1081.48 1507.47 1084.97 1516.78C1088.45 1526.03 1090.19 1536.86 1090.19 1549.28V1560.39H966.971V1535.31H1052.1C1052.1 1529.48 1050.83 1524.32 1048.3 1519.82C1045.76 1515.33 1042.25 1511.81 1037.75 1509.28C1033.32 1506.68 1028.15 1505.38 1022.26 1505.38C1016.12 1505.38 1010.67 1506.81 1005.92 1509.66C1001.24 1512.45 997.562 1516.21 994.902 1520.96C992.242 1525.65 990.88 1530.88 990.817 1536.64V1560.49C990.817 1567.71 992.147 1573.95 994.807 1579.2C997.531 1584.46 1001.36 1588.51 1006.3 1591.36C1011.24 1594.21 1017.1 1595.64 1023.88 1595.64C1028.38 1595.64 1032.49 1595.01 1036.23 1593.74C1039.97 1592.47 1043.17 1590.57 1045.83 1588.04C1048.49 1585.5 1050.51 1582.4 1051.91 1578.73L1089.34 1581.2C1087.44 1590.19 1083.54 1598.05 1077.65 1604.76C1071.83 1611.41 1064.29 1616.6 1055.04 1620.34C1045.86 1624.01 1035.25 1625.85 1023.21 1625.85ZM1157.08 1428.43V1623H1116.61V1428.43H1157.08ZM1189.5 1677.72V1477.07H1229.4V1501.58H1231.21C1232.98 1497.66 1235.54 1493.67 1238.9 1489.61C1242.32 1485.5 1246.76 1482.07 1252.2 1479.35C1257.71 1476.56 1264.55 1475.17 1272.72 1475.17C1283.36 1475.17 1293.18 1477.96 1302.18 1483.53C1311.17 1489.04 1318.36 1497.37 1323.74 1508.52C1329.13 1519.6 1331.82 1533.5 1331.82 1550.23C1331.82 1566.5 1329.19 1580.25 1323.93 1591.46C1318.74 1602.61 1311.64 1611.06 1302.65 1616.83C1293.72 1622.53 1283.71 1625.38 1272.63 1625.38C1264.77 1625.38 1258.09 1624.08 1252.58 1621.48C1247.14 1618.88 1242.67 1615.62 1239.19 1611.69C1235.7 1607.7 1233.04 1603.68 1231.21 1599.63H1229.97V1677.72H1189.5ZM1229.12 1550.04C1229.12 1558.71 1230.32 1566.28 1232.73 1572.74C1235.13 1579.2 1238.62 1584.24 1243.18 1587.85C1247.74 1591.4 1253.28 1593.17 1259.8 1593.17C1266.39 1593.17 1271.96 1591.36 1276.52 1587.75C1281.08 1584.08 1284.54 1579.01 1286.88 1572.55C1289.29 1566.03 1290.49 1558.52 1290.49 1550.04C1290.49 1541.61 1289.32 1534.2 1286.97 1527.8C1284.63 1521.41 1281.18 1516.4 1276.62 1512.79C1272.06 1509.18 1266.45 1507.38 1259.8 1507.38C1253.22 1507.38 1247.64 1509.12 1243.08 1512.6C1238.58 1516.09 1235.13 1521.03 1232.73 1527.42C1230.32 1533.82 1229.12 1541.36 1229.12 1550.04Z" fill="white"/>
<defs>
<filter id="filter0_f_102_15" x="0.506012" y="0.551147" width="1867.05" height="2157.8" filterUnits="userSpaceOnUse" color-interpolation-filters="sRGB">
<feFlood flood-opacity="0" result="BackgroundImageFix"/>
<feBlend mode="normal" in="SourceGraphic" in2="BackgroundImageFix" result="shape"/>
<feGaussianBlur stdDeviation="84" result="effect1_foregroundBlur_102_15"/>
</filter>
<filter id="filter1_d_102_15" x="1579.18" y="586.281" width="143.851" height="142.401" filterUnits="userSpaceOnUse" color-interpolation-filters="sRGB">
<feFlood flood-opacity="0" result="BackgroundImageFix"/>
<feColorMatrix in="SourceAlpha" type="matrix" values="0 0 0 0 0 0 0 0 0 0 0 0 0 0 0 0 0 0 127 0" result="hardAlpha"/>
<feMorphology radius="7" operator="erode" in="SourceAlpha" result="effect1_dropShadow_102_15"/>
<feOffset dx="5" dy="12"/>
<feGaussianBlur stdDeviation="15"/>
<feComposite in2="hardAlpha" operator="out"/>
<feColorMatrix type="matrix" values="0 0 0 0 0.44 0 0 0 0 1 0 0 0 0 0 0 0 0 1 0"/>
<feBlend mode="normal" in2="BackgroundImageFix" result="effect1_dropShadow_102_15"/>
<feBlend mode="normal" in="SourceGraphic" in2="effect1_dropShadow_102_15" result="shape"/>
</filter>
</defs>
</svg>
